HIERARCHY
ROOT Hips
{
	OFFSET	0.00	0.00	0.00
	CHANNELS 6 Xposition Yposition Zposition Zrotation Xrotation Yrotation
	JOINT LeftUpLeg
	{
		OFFSET	 0.126116	-0.014019	-0.065224
		CHANNELS 3 Zrotation Xrotation Yrotation
		JOINT LeftLeg
		{
			OFFSET	 0.000000	 0.000000	 0.569914
			CHANNELS 3 Zrotation Xrotation Yrotation
			JOINT LeftFoot
			{
				OFFSET	 0.000000	 0.000000	 0.544423
				CHANNELS 3 Zrotation Xrotation Yrotation
				JOINT LeftToeBase
				{
					OFFSET	 0.000000	 0.000000	 0.207117
					CHANNELS 3 Zrotation Xrotation Yrotation
					End Site
					{
						OFFSET	 0.000000	 0.000000	 0.207117
					}
				}
			}
		}
	}
	JOINT RightUpLeg
	{
		OFFSET	-0.124023	-0.008373	-0.065224
		CHANNELS 3 Zrotation Xrotation Yrotation
		JOINT RightLeg
		{
			OFFSET	 0.000000	 0.000000	 0.570047
			CHANNELS 3 Zrotation Xrotation Yrotation
			JOINT RightFoot
			{
				OFFSET	 0.000000	 0.000000	 0.544354
				CHANNELS 3 Zrotation Xrotation Yrotation
				JOINT RightToeBase
				{
					OFFSET	 0.000000	 0.000000	 0.207540
					CHANNELS 3 Zrotation Xrotation Yrotation
					End Site
					{
						OFFSET	 0.000000	 0.000000	 0.207540
					}
				}
			}
		}
	}
	JOINT Spine
	{
		OFFSET	 0.000184	-0.007763	 0.117403
		CHANNELS 3 Zrotation Xrotation Yrotation
		JOINT Spine1
		{
			OFFSET	 0.000000	 0.000000	 0.137269
			CHANNELS 3 Zrotation Xrotation Yrotation
			JOINT Spine2
			{
				OFFSET	 0.000000	 0.000000	 0.156879
				CHANNELS 3 Zrotation Xrotation Yrotation
				JOINT LeftShoulder
				{
					OFFSET	 0.080501	-0.002496	 0.160144
					CHANNELS 3 Zrotation Xrotation Yrotation
					JOINT LeftArm
					{
						OFFSET	 0.000000	 0.000000	 0.164363
						CHANNELS 3 Zrotation Xrotation Yrotation
						JOINT LeftForeArm
						{
							OFFSET	 0.000000	 0.000000	 0.364576
							CHANNELS 3 Zrotation Xrotation Yrotation
							JOINT LeftHand
							{
								OFFSET	 0.000000	 0.000000	 0.360812
								CHANNELS 3 Zrotation Xrotation Yrotation
								JOINT LeftHandIndex1
								{
									OFFSET	 0.000000	 0.000000	 0.086006
									CHANNELS 3 Zrotation Xrotation Yrotation
									JOINT LeftHandIndex2
									{
										OFFSET	 0.000000	 0.000000	 0.047237
										CHANNELS 3 Zrotation Xrotation Yrotation
										JOINT LeftHandIndex3
										{
											OFFSET	-0.004284	-0.000551	 0.038165
											CHANNELS 3 Zrotation Xrotation Yrotation
											End Site
											{
												OFFSET	-0.004284	-0.000551	 0.038165
											}
										}
									}
								}
							}
						}
					}
				}
				JOINT Neck
				{
					OFFSET	 0.000000	 0.000000	 0.176489
					CHANNELS 3 Zrotation Xrotation Yrotation
					JOINT Head
					{
						OFFSET	 0.000000	-0.001747	 0.077940
						CHANNELS 3 Zrotation Xrotation Yrotation
						End Site
						{
							OFFSET	 0.000000	-0.001747	 0.077940
						}
					}
				}
				JOINT RightShoulder
				{
					OFFSET	-0.080363	 0.000306	 0.159706
					CHANNELS 3 Zrotation Xrotation Yrotation
					JOINT RightArm
					{
						OFFSET	 0.000000	 0.000000	 0.164196
						CHANNELS 3 Zrotation Xrotation Yrotation
						JOINT RightForeArm
						{
							OFFSET	 0.000000	 0.000000	 0.365611
							CHANNELS 3 Zrotation Xrotation Yrotation
							JOINT RightHand
							{
								OFFSET	 0.000000	 0.000000	 0.360648
								CHANNELS 3 Zrotation Xrotation Yrotation
								JOINT RightHandIndex1
								{
									OFFSET	 0.000000	 0.000000	 0.069977
									CHANNELS 3 Zrotation Xrotation Yrotation
									JOINT RightHandIndex2
									{
										OFFSET	 0.000000	 0.000000	 0.052305
										CHANNELS 3 Zrotation Xrotation Yrotation
										JOINT RightHandIndex3
										{
											OFFSET	 0.009002	-0.000782	 0.042196
											CHANNELS 3 Zrotation Xrotation Yrotation
											End Site
											{
												OFFSET	 0.009002	-0.000782	 0.042196
											}
										}
									}
								}
							}
						}
					}
				}
			}
		}
	}
}
MOTION
Frames:    6
Frame Time: 0.03333334
-0.639571	-0.130912	 1.281794	-159.247100	 8.688177	 8.739695	-19.748680	-9.831649	 169.633100	-9.205428	-31.923680	-3.850298	-10.452920	 85.989170	 6.093956	-2.385833	 28.452760	 0.000004	 49.919970	-47.020920	-167.230800	-30.460710	-58.884010	-16.918990	 26.397630	 33.252090	-37.736780	 2.384659	 28.388700	-0.000001	 23.777560	-18.867760	-13.048360	 44.042540	 27.936540	-1.334066	-2.856652	-9.113085	-2.193567	-91.776130	 78.527380	 180.000000	 24.240040	 54.377270	-24.926920	-9.519717	-7.311395	-52.744450	 8.571412	 10.062010	-4.179116	-4.131196	 21.524690	 0.986298	-5.167839	 0.733520	 3.519257	-1.378229	 35.397820	-2.634230	-14.156720	 16.460890	-7.368048	-24.658550	 3.123785	 5.340403	 89.782070	 78.203900	-180.000000	 3.445390	 66.913510	-16.846590	-1.174538	-10.122270	 35.175560	 91.100530	-22.648160	 0.656590	 5.715225	 19.176060	-3.692089	 5.027514	 0.245388	-9.378011	-2.350882	 35.473990	 5.254307
-0.639731	-0.130674	 1.281823	-159.611600	 8.903530	 9.318459	-19.950770	-10.010130	 169.026600	-9.092579	-32.422300	-3.842575	-10.169360	 86.107210	 5.523427	-2.385833	 28.452760	 0.000004	 51.295620	-47.169690	-167.016500	-28.241840	-58.818140	-14.957140	 32.646770	 38.037560	-40.622170	 2.384659	 28.388700	-0.000001	 23.751320	-19.398790	-13.713710	 44.190910	 27.949250	-1.061034	-2.882422	-8.882082	-2.436719	-91.776190	 78.527430	-180.000000	 24.550760	 54.207660	-25.213010	-9.410181	-7.441270	-52.682770	 8.987550	 10.346790	-4.301730	-4.131196	 21.524690	 0.986298	-5.167839	 0.733520	 3.519257	-1.378229	 35.397820	-2.634230	-14.013990	 16.435130	-7.798591	-24.742650	 2.968972	 5.363862	 89.782140	 78.203870	 179.999900	 3.778979	 66.857210	-17.127150	-1.342529	-10.258200	 35.196150	 90.581250	-23.406410	 0.486130	 5.715225	 19.176060	-3.692089	 5.027514	 0.245388	-9.378011	-2.350882	 35.473990	 5.254307
-0.639225	-0.130396	 1.282141	-159.822200	 8.828782	 9.455039	-19.296210	-9.865930	 168.889600	-8.944928	-32.271860	-3.746993	 5.609853	 87.103290	-10.642110	-2.385833	 28.452760	 0.000004	 51.399030	-47.169550	-167.147700	-25.793570	-59.059730	-12.849850	 38.638460	 42.414830	-43.351860	 2.384659	 28.388700	-0.000001	 23.596980	-20.116060	-14.330410	 44.493780	 29.286810	-1.573429	-2.901108	-9.398609	-2.263259	-91.776150	 78.527380	 180.000000	 24.627320	 54.093380	-25.249940	-9.218441	-7.667839	-52.576340	 9.328705	 10.542570	-4.421240	-4.131196	 21.524690	 0.986298	-5.167839	 0.733520	 3.519257	-1.378229	 35.397820	-2.634230	-13.981400	 16.352540	-7.878904	-24.780370	 2.883930	 5.232024	 89.782140	 78.203900	 180.000000	 3.871171	 66.876900	-17.123070	-1.762742	-10.512350	 35.027130	 90.328600	-22.668110	 1.332112	 5.715225	 19.176060	-3.692089	 5.027514	 0.245388	-9.378011	-2.350882	 35.473990	 5.254307
-0.638185	-0.129943	 1.282588	-159.936000	 8.619862	 9.331587	-18.196990	-9.549368	 169.009700	-8.763910	-31.748260	-3.596528	 48.381700	 87.718870	-53.796040	-2.385833	 28.452760	 0.000004	 50.613240	-47.107200	-167.507700	-23.310420	-59.407090	-10.725850	 44.179970	 46.228290	-46.073230	 2.384659	 28.388700	-0.000001	 23.400000	-20.819290	-14.798930	 44.875020	 31.073840	-2.462640	-2.906287	-10.205750	-1.894144	-91.776200	 78.527400	-180.000000	 24.574460	 54.020920	-25.151360	-8.990108	-7.932920	-52.440650	 9.602820	 10.678570	-4.528915	-4.131196	 21.524690	 0.986298	-5.167839	 0.733520	 3.519257	-1.378229	 35.397820	-2.634230	-14.011990	 16.243840	-7.759021	-24.790320	 2.843328	 5.021873	 89.782100	 78.203900	 180.000000	 3.896046	 66.936230	-17.019300	-2.298626	-10.814800	 34.765880	 90.211420	-21.180490	 2.706261	 5.715225	 19.176060	-3.692089	 5.027514	 0.245388	-9.378011	-2.350882	 35.473990	 5.254307
-0.636998	-0.128987	 1.282780	-160.568900	 8.763949	 9.477730	-16.956750	-9.631029	 168.797600	-8.347672	-31.567330	-3.358177	 85.404560	 87.794070	-91.250700	-2.385833	 28.452760	 0.000004	 49.530750	-47.562360	-167.836100	-21.021740	-59.328410	-8.729042	 47.569380	 48.956190	-47.613380	 2.384659	 28.388700	-0.000001	 23.868380	-21.059000	-15.135500	 44.857820	 31.410400	-2.017363	-2.948211	-10.189350	-2.022986	-91.776160	 78.527400	 180.000000	 24.454370	 53.919220	-25.043580	-8.720180	-8.279131	-52.398670	 9.929524	 10.837070	-4.662694	-4.131196	 21.524690	 0.986298	-5.167839	 0.733520	 3.519257	-1.378229	 35.397820	-2.634230	-14.018920	 16.333670	-7.701952	-24.771510	 2.715868	 4.851351	 89.782130	 78.203870	 180.000000	 3.907161	 67.009060	-16.780920	-3.003276	-11.198650	 34.407930	 89.149660	-21.069660	 3.214607	 5.715225	 19.176060	-3.692089	 5.027514	 0.245388	-9.378011	-2.350882	 35.473990	 5.254307
-0.635902	-0.127852	 1.282739	-161.386200	 9.082055	 9.780454	-15.958500	-9.932334	 168.420400	-7.841424	-31.670000	-3.099939	 112.856100	 87.850870	-119.134700	-2.385833	 28.452760	 0.000004	 48.682100	-48.173730	-168.070800	-19.504810	-58.967780	-7.387695	 48.482820	 50.387310	-47.662830	 2.384659	 28.388700	-0.000001	 24.663480	-20.915220	-15.332740	 44.574170	 30.734460	-0.782697	-3.001677	-9.644690	-2.446618	-91.776170	 78.527400	 180.000000	 24.322120	 53.820390	-24.962600	-8.492070	-8.591426	-52.427450	 10.202020	 10.970670	-4.777840	-4.131196	 21.524690	 0.986298	-5.167839	 0.733520	 3.519257	-1.378229	 35.397820	-2.634230	-14.008250	 16.533900	-7.702028	-24.738210	 2.562745	 4.752143	 89.782050	 78.203870	-180.000000	 3.830004	 67.072070	-16.436360	-3.640002	-11.534570	 34.076440	 87.733860	-21.883400	 2.943735	 5.715225	 19.176060	-3.692089	 5.027514	 0.245388	-9.378011	-2.350882	 35.473990	 5.254307
